<svg xmlns="http://www.w3.org/2000/svg" fill="none" width="512" height="512"><path d="M57.414 102.586l45.172-45.172M57.414 86.586l29.172-29.172M57.414 70.586l13.172-13.172m48 0l-61.172 61.172m77.172-61.172l-61.172 61.172m77.172-61.172l-61.172 61.172M58 58h124v60H58zm108.586-.586l-61.172 61.172m77.172-45.172l-45.172 45.172m45.171-29.172l-29.171 29.172m29.172-13.172l-13.172 13.172m13.172-61.172l-61.172 61.172" stroke="#000" stroke-width="4"/><path d="M18 18h476v476H18z" stroke="#000" stroke-width="4"/><text y="-132" x="104" style="line-height:1;-inkscape-font-specification:Oxanium;text-align:center" font-size="53.333" font-family="Oxanium" letter-spacing="0" word-spacing="0" text-anchor="middle" fill="#000"/><path d="M329.414 102.586l45.172-45.172m-45.172 29.172l29.172-29.172m-29.172 13.172l13.172-13.172m48 0l-61.172 61.172m77.172-61.172l-61.172 61.172m77.172-61.172l-61.172 61.172M330 58h124v60H330zm108.586-.586l-61.172 61.172m77.172-45.172l-45.172 45.172m45.172-29.172l-29.172 29.172m29.172-13.172l-13.172 13.172m13.172-61.172l-61.172 61.172" stroke="#000" stroke-width="4"/><path fill="#000" fill-rule="evenodd" d="M208 56h96v64h-96z"/><path d="M228 88.013q0-6.947 1.416-11.169 1.443-4.248 4.248-6.546Q236.496 68 240.771 68q3.153 0 5.53 1.283 2.378 1.255 3.928 3.66 1.55 2.378 2.431 5.825.882 3.42.882 9.245 0 6.894-1.416 11.143-1.416 4.221-4.248 6.546Q245.073 108 240.77 108q-5.664 0-8.897-4.061Q228 99.049 228 88.013zm4.943 0q0 9.646 2.244 12.853 2.271 3.18 5.584 3.18 3.313 0 5.557-3.207 2.271-3.206 2.271-12.826 0-9.672-2.27-12.852-2.245-3.18-5.611-3.18-3.313 0-5.29 2.806-2.485 3.58-2.485 13.226zM258.458 88.013q0-6.947 1.416-11.169 1.443-4.248 4.248-6.546Q266.954 68 271.23 68q3.153 0 5.53 1.283 2.378 1.255 3.928 3.66 1.55 2.378 2.431 5.825.882 3.42.882 9.245 0 6.894-1.416 11.143-1.416 4.221-4.248 6.546Q275.53 108 271.229 108q-5.664 0-8.897-4.061-3.874-4.89-3.874-15.926zm4.943 0q0 9.646 2.244 12.853 2.271 3.18 5.584 3.18 3.313 0 5.557-3.207 2.271-3.206 2.271-12.826 0-9.672-2.27-12.852-2.245-3.18-5.611-3.18-3.313 0-5.29 2.806-2.485 3.58-2.485 13.226z" style="line-height:1;-inkscape-font-specification:Arial;text-align:center" font-weight="400" font-size="54.72" font-family="Arial" letter-spacing="0" word-spacing="0" text-anchor="middle" fill="#fff"/><path style="font-variation-settings:normal" stroke="#000" stroke-width="4" d="M113.514 158.976h81.047v81.047h-81.047zM312.164 258.281h81.047v81.047h-81.047zM212.859 158.976h81.047v81.047h-81.047zM312.164 158.976h81.047v81.047h-81.047zM113.554 258.281h81.047v81.047h-81.047zM212.859 258.281h81.047v81.047h-81.047zM113.554 357.586h81.047v81.047h-81.047zM212.859 357.586h81.047v81.047h-81.047zM312.164 357.586h81.047v81.047h-81.047z"/></svg>